<svg width="141" height="58" viewBox="0 0 141 58" fill="none" xmlns="http://www.w3.org/2000/svg">
<path d="M0 3.23658L15.3079 1.75317V20.5839C16.3514 20.0322 17.493 19.5908 18.7206 19.2843C19.9605 18.9656 21.3231 18.8185 22.8207 18.8185C24.9322 18.8185 26.8963 19.1618 28.7254 19.836C30.5545 20.5103 32.1504 21.5279 33.5007 22.8764C34.8633 24.225 35.9313 25.929 36.717 27.9641C37.5026 29.9992 37.8954 32.4021 37.8954 35.1482V57.1051H22.5875V36.8523C22.5875 35.7612 22.477 34.8663 22.2438 34.1552C22.0105 33.4441 21.7159 32.8802 21.3354 32.4511C20.9548 32.022 20.5374 31.7401 20.0832 31.5807C19.629 31.4213 19.1625 31.3478 18.7083 31.3478C18.1068 31.3478 17.5176 31.4581 16.9652 31.691C16.4128 31.924 15.8481 32.255 15.2957 32.6841V57.0928H0V3.23658Z" fill="#1C1C1C"/>
<path d="M43.8125 19.7134H59.1204V57.0928H43.8125V19.7134Z" fill="#1C1C1C"/>
<path d="M103.952 19.7134C102.712 26.0638 101.153 32.3285 99.2621 38.495C97.3717 44.6616 95.0884 50.8649 92.4 57.0928H73.9371C71.261 50.8649 68.9777 44.6616 67.0872 38.495C65.1968 32.3285 63.65 26.0638 62.4102 19.7134H78.1477C78.4424 21.6014 78.7615 23.4771 79.1421 25.365C79.5104 27.253 79.9155 29.1287 80.3574 31.0167C80.7993 32.9047 81.2658 34.7804 81.7691 36.6684C82.2724 38.5563 82.8248 40.432 83.4263 42.32C84.0033 40.432 84.5434 38.5563 85.0468 36.6684C85.5501 34.7804 86.0165 32.9047 86.4462 31.0167C86.8759 29.1287 87.281 27.253 87.6492 25.365C88.0175 23.4771 88.3367 21.6014 88.6313 19.7134H103.939H103.952Z" fill="#1C1C1C"/>
<path d="M141 54.9598C138.802 55.9773 136.445 56.7374 133.929 57.2401C131.412 57.7427 128.761 58.0002 125.986 58.0002C122.574 58.0002 119.542 57.5711 116.866 56.7129C114.189 55.8547 111.943 54.6165 110.102 52.986C108.26 51.3555 106.861 49.3572 105.891 46.9788C104.921 44.6005 104.442 41.8911 104.442 38.8507C104.442 35.8104 104.884 33.052 105.78 30.5878C106.677 28.1236 107.953 26.015 109.61 24.2619C111.268 22.5087 113.281 21.1602 115.65 20.2285C118.019 19.2845 120.683 18.8186 123.629 18.8186C126.293 18.8186 128.675 19.2232 130.774 20.02C132.873 20.8169 134.665 22.0061 136.126 23.5876C137.587 25.1691 138.704 27.1551 139.478 29.5335C140.251 31.9118 140.644 34.6825 140.644 37.8454C140.644 38.4952 140.631 39.1572 140.595 39.8192C140.558 40.4813 140.484 41.2291 140.361 42.0505H119.394V42.124C119.689 43.019 120.057 43.7668 120.524 44.3921C120.99 45.0173 121.567 45.5077 122.267 45.8755C122.967 46.2432 123.789 46.5252 124.734 46.6846C125.68 46.844 126.772 46.942 128.036 46.942C129.853 46.942 131.633 46.7214 133.401 46.2678C135.169 45.8142 136.838 45.1889 138.41 44.3675L141.024 54.9843L141 54.9598ZM126.748 33.7017C126.698 32.8435 126.588 32.0835 126.416 31.4582C126.244 30.8207 126.011 30.2936 125.704 29.8767C125.397 29.4599 125.041 29.1412 124.636 28.945C124.231 28.7489 123.752 28.6385 123.224 28.6385C122.697 28.6385 122.255 28.7366 121.849 28.945C121.444 29.1534 121.064 29.4599 120.745 29.8767C120.425 30.2936 120.131 30.8207 119.898 31.4582C119.652 32.0957 119.468 32.8435 119.321 33.7017H126.76H126.748Z" fill="#1C1C1C"/>
<path d="M56.5055 11.7693C57.1561 11.3648 57.6963 10.4208 57.6963 9.64844V4.78139C57.6963 4.0213 57.1684 3.06505 56.5055 2.66049L52.6509 0.294391C52.0003 -0.110175 50.9323 -0.110175 50.2817 0.294391L46.4271 2.66049C45.7765 3.06505 45.2363 4.00904 45.2363 4.78139V9.64844C45.2363 10.4085 45.7642 11.3648 46.4271 11.7693L50.2817 14.1354C50.9323 14.54 52.0003 14.54 52.6509 14.1354L56.5055 11.7693Z" fill="#CC953D"/>
</svg>
